<?xml version="1.0" encoding="UTF-8" standalone="no"?>
<!-- Created with Inkscape (http://www.inkscape.org/) -->

<svg
   xmlns:dc="http://purl.org/dc/elements/1.1/"
   xmlns:cc="http://creativecommons.org/ns#"
   xmlns:rdf="http://www.w3.org/1999/02/22-rdf-syntax-ns#"
   xmlns:svg="http://www.w3.org/2000/svg"
   xmlns="http://www.w3.org/2000/svg"
   version="1.1"
   width="49"
   height="30"
   id="svg3859">
  <defs
     id="defs3861" />
  <metadata
     id="metadata3864">
    <rdf:RDF>
      <cc:Work
         rdf:about="">
        <dc:format>image/svg+xml</dc:format>
        <dc:type
           rdf:resource="http://purl.org/dc/dcmitype/StillImage" />
        <dc:title></dc:title>
      </cc:Work>
    </rdf:RDF>
  </metadata>
  <g
     transform="translate(0,-1022.3622)"
     id="layer1">
    <g
       transform="matrix(0.21403872,0,0,0.21403957,-10.096041,950.84002)"
       id="g3099">
      <g
         transform="matrix(1.0770414,0,0,1,-12.452554,0)"
         id="g3028">
        <g
           id="g3101">
          <polygon
             points="254.615,413.054 251.613,422 265.347,422.101 267.912,402.224 168.687,401.39 161.636,417.482 "
             id="polygon3103"
             style="fill:#85be46;fill-rule:evenodd" />
          <path
             d="m 221.887,432.26 0.138,15.02 c 0.132,7.939 4.157,11.816 12.127,11.666 l 11.615,-0.211 c 4.159,-0.092 7.466,-1.014 9.982,-2.791 2.504,-1.805 4.143,-4.418 4.928,-7.883 0.774,-3.461 2.559,-8.592 3.428,-14.404 -0.307,-0.08 -13.923,-0.965 -13.923,-0.965 -0.447,8.725 -1.032,10.793 -1.736,12.339 -0.71,1.577 -2.192,2.36 -4.493,2.398 l -3.516,0.082 c -2.961,0.08 -4.435,-1.276 -4.463,-4.057 l 0.395,-21.253 c 0,0 -46.581,0.981 -47.296,1.002 8.901,37.568 -21.711,36.525 -21.711,36.525 l 5.62,14.325 c 0,0 39.229,-4.356 31.979,-41.19 l 16.926,-0.603 z"
             id="path3105"
             style="fill:#85be46;fill-rule:evenodd" />
          <polygon
             points="229.645,363.73 229.011,341.133 208.14,344.305 208.75,364.634 168.738,366.392 168.723,377.846 209.065,376.081 209.266,383.78 175.885,383.839 175.859,395.295 209.564,395.226 230.433,395.276 258.023,395.346 258.044,383.889 230.146,383.82 229.94,375.166 265.063,373.641 265.098,362.197 "
             id="polygon3107"
             style="fill:#85be46;fill-rule:evenodd" />
        </g>
        <path
           d="m 115.869,418.816 26.846,-0.914 4.987,-14.234 -36.35,0.392 v -6.024 h 17.384 l -0.014,0.117 h 13.282 l 4.927,-63.999 -87.794,4.056 1.3,10.621 72.229,-4.336 -1.339,18.069 -19.975,1.648 v -12.75 l -13.403,0.985 0.06,12.88 -22.066,1.838 -1.557,-19.165 -13.949,0.831 5.871,49.205 H 79.61 98.009 v 6.165 l -41.844,0.449 v 16.194 l 37.156,-1.267 c -12.979,17.771 -37.964,21.357 -37.964,21.357 l 5.172,20.108 c 0,0 23.946,-9.015 37.479,-25.934 v 36.646 l 13.343,2.561 v -42.869 c 14.272,16.424 41.752,21.995 41.752,21.995 l 5.282,-19.036 c 0.001,0.001 -28.771,-2.475 -42.516,-15.589 z m 14.316,-40.419 -0.692,9.297 h -18.141 v -9.297 h 18.833 z m -51.812,9.297 -1.094,-9.297 h 20.73 v 9.297 H 78.373 z"
           id="path3109"
           style="fill:#2ea1cf;fill-rule:evenodd" />
      </g>
    </g>
  </g>
</svg>
